<?xml version="1.0" standalone="no"?>
<!DOCTYPE svg PUBLIC "-//W3C//DTD SVG 20010904//EN"
 "http://www.w3.org/TR/2001/REC-SVG-20010904/DTD/svg10.dtd">
<svg version="1.0" xmlns="http://www.w3.org/2000/svg"
 width="500.000000pt" height="500.000000pt" viewBox="0 0 500.000000 500.000000"
 preserveAspectRatio="xMidYMid meet">

<g transform="translate(0.000000,500.000000) scale(0.100000,-0.100000)"
fill="#000000" stroke="none">
<path d="M0 2500 l0 -2500 2500 0 2500 0 0 2500 0 2500 -2500 0 -2500 0 0
-2500z m2781 1989 c232 -23 438 -82 644 -183 198 -98 368 -219 500 -357 56
-59 55 -58 -25 15 -288 263 -595 417 -970 488 -97 19 -151 22 -340 22 -217 0
-228 -1 -315 -27 -102 -32 -281 -115 -393 -183 -251 -152 -460 -379 -578 -628
-83 -177 -138 -392 -150 -591 -9 -147 -10 -343 -1 -338 4 2 7 -14 7 -36 0 -23
-4 -41 -8 -41 -5 0 -9 -7 -9 -15 0 -9 6 -14 14 -11 9 4 13 -4 13 -27 0 -24 -3
-28 -10 -17 -7 12 -9 10 -8 -7 1 -11 7 -19 14 -16 7 2 13 -16 18 -54 13 -114
68 -317 108 -403 72 -152 219 -274 451 -375 48 -21 86 -40 84 -42 -6 -5 -108
32 -156 57 -24 12 -53 23 -64 26 -11 2 -37 12 -58 22 -21 11 -36 15 -33 10 3
-5 -3 -4 -14 3 -12 7 -20 15 -18 17 2 2 -7 15 -20 29 -19 21 -27 24 -37 14 -9
-10 -8 -11 8 -6 16 5 17 5 5 -3 -19 -14 -32 -5 -25 18 7 21 -21 36 -29 15 -3
-10 0 -12 11 -8 11 4 14 3 9 -6 -5 -7 -14 -10 -22 -7 -8 3 -14 1 -14 -4 0 -21
-20 -9 -36 21 -8 17 -11 28 -5 25 6 -4 11 -3 11 3 0 5 8 17 17 27 16 16 16 16
-4 10 -22 -7 -34 11 -42 62 0 4 -16 31 -35 60 -33 52 -34 52 -48 30 -16 -25
-13 -62 4 -52 7 4 8 2 4 -5 -9 -14 -26 -5 -26 15 0 8 -4 12 -10 9 -7 -4 -7 3
0 19 5 14 6 26 1 26 -5 0 -12 11 -15 25 -4 14 -11 23 -16 20 -12 -8 -13 1 -1
43 6 20 6 32 0 32 -5 0 -9 8 -9 18 1 15 2 15 12 -3 14 -24 16 -46 5 -61 -4 -7
-1 -14 8 -18 9 -3 13 -10 10 -16 -3 -6 1 -7 9 -4 9 3 16 14 16 23 0 12 -2 13
-9 3 -7 -11 -9 -11 -14 2 -4 9 -2 16 2 16 5 0 8 18 8 40 -2 39 -11 52 -19 28
-3 -7 -7 -5 -11 6 -4 10 -3 15 3 11 6 -3 10 -3 10 2 0 4 3 19 7 33 6 22 5 24
-10 11 -14 -11 -18 -11 -23 2 -3 9 -1 24 5 34 9 15 10 13 5 -12 -4 -23 -3 -26
5 -15 14 19 14 50 1 50 -5 0 -10 5 -10 11 0 5 4 8 9 5 4 -3 6 7 3 22 -5 24 -8
21 -23 -28 -10 -30 -18 -66 -19 -80 -1 -23 -2 -23 -10 -5 -4 11 -4 24 1 29 5
6 9 16 9 24 0 9 -7 6 -20 -9 l-19 -24 0 30 c0 24 2 26 8 11 6 -16 9 -17 13 -5
3 8 0 23 -8 34 -8 10 -14 15 -15 9 0 -5 -4 0 -9 11 -7 18 -8 18 -15 -7 -4 -16
-11 -28 -16 -28 -6 0 -6 7 -1 18 5 9 12 49 15 87 4 39 3 59 -2 45 -7 -23 -8
-21 -13 15 -3 22 -1 49 3 60 6 16 8 14 8 -13 1 -19 5 -31 11 -27 6 4 10 -8 11
-27 l1 -33 11 34 c8 26 8 36 -1 39 -7 2 -12 12 -12 22 0 10 -5 22 -10 25 -6 3
-10 21 -10 38 0 24 -3 28 -10 17 -7 -11 -10 0 -11 40 -1 48 -2 51 -10 25 -6
-23 -7 -15 -5 32 1 34 -1 60 -4 58 -4 -3 -10 26 -14 63 -9 96 -27 149 -21 62
3 -43 1 -57 -4 -40 -5 15 -7 -14 -4 -75 3 -55 1 -116 -4 -135 -19 -69 -26 151
-8 264 8 55 13 101 11 103 -7 8 -28 -139 -35 -246 -4 -58 -4 -108 -1 -111 12
-9 20 -115 11 -145 -9 -29 -9 -28 -12 15 -2 41 -3 42 -6 10 -3 -19 -1 -55 2
-80 6 -36 9 -41 16 -25 5 14 7 2 7 -35 0 -43 -2 -49 -7 -25 -4 17 -13 29 -19
27 -10 -2 -12 43 -10 197 2 109 0 197 -4 194 -5 -2 -9 8 -9 24 -3 51 -17 -80
-18 -165 -1 -53 3 -81 9 -77 6 4 10 -29 11 -92 1 -54 5 -111 9 -128 l8 -30 2
35 2 35 9 -44 c9 -48 19 -65 20 -35 0 18 1 18 8 -1 4 -11 6 -29 3 -39 -5 -20
-5 -20 -13 0 -7 17 -8 16 -9 -6 -1 -21 -4 -18 -15 15 -8 26 -14 33 -15 20 -1
-14 -5 -10 -11 13 -5 17 -14 32 -19 32 -6 0 -9 21 -8 48 l1 47 4 -42 c2 -24 7
-43 12 -43 4 0 4 30 0 68 -5 37 -8 81 -9 97 0 24 -2 27 -11 15 -15 -22 -2 199
21 340 11 63 31 159 45 212 31 123 96 299 107 292 4 -3 5 3 1 12 -4 12 -3 15
5 10 8 -5 10 -1 5 10 -4 12 -3 15 5 10 8 -5 10 -1 5 10 -5 13 -3 15 7 9 8 -5
11 -4 6 3 -9 14 14 63 27 55 5 -3 7 0 4 8 -5 15 24 71 85 162 21 31 36 57 33
57 -8 0 -110 -158 -136 -212 -12 -26 -26 -45 -31 -42 -4 3 -5 -3 -1 -12 4 -12
3 -15 -5 -10 -8 5 -10 1 -5 -10 4 -12 3 -15 -5 -10 -8 5 -10 1 -5 -10 4 -12 3
-15 -5 -10 -8 5 -10 1 -5 -10 4 -12 3 -15 -5 -10 -8 5 -10 1 -5 -10 4 -11 3
-15 -4 -11 -7 5 -9 -1 -6 -15 4 -19 3 -20 -7 -8 -9 12 -10 10 -6 -10 3 -14 3
-19 0 -11 -10 21 -36 -47 -29 -73 5 -17 4 -18 -5 -6 -9 12 -10 9 -6 -15 5 -20
4 -25 -3 -16 -12 18 -54 -119 -87 -279 -99 -484 -12 -1002 235 -1400 64 -102
110 -162 121 -155 4 3 14 -3 21 -13 13 -15 12 -16 -3 -3 -25 19 -22 2 5 -28
l22 -26 -27 24 c-36 32 -36 16 0 -23 l27 -31 -33 29 c-42 38 -42 22 1 -24 l32
-35 -37 34 c-75 69 -36 14 60 -84 l97 -100 -97 95 c-54 52 -98 90 -98 85 0 -5
37 -48 83 -95 68 -71 71 -74 14 -20 -59 56 -158 168 -207 235 -14 19 -14 19 3
6 19 -15 24 -2 5 17 -7 7 -9 12 -6 12 3 0 18 -17 34 -38 21 -28 22 -32 6 -18
-28 24 -29 6 -2 -19 11 -10 20 -14 20 -10 0 5 11 -2 25 -15 31 -29 33 -15 3
19 l-23 26 23 -19 c12 -11 22 -14 22 -8 0 6 -3 13 -8 16 -4 2 -23 26 -42 53
-19 26 -26 42 -17 34 9 -7 17 -11 17 -7 0 12 -53 86 -58 82 -3 -3 3 -18 13
-33 16 -24 16 -26 2 -14 -23 18 -21 5 4 -30 11 -16 18 -29 15 -29 -3 0 -22 25
-42 55 -21 30 -39 53 -42 50 -3 -2 8 -24 23 -47 16 -24 21 -37 12 -29 -20 16
-23 1 -5 -18 10 -10 10 -12 1 -7 -33 18 -207 339 -227 416 l-6 25 12 -25 c6
-14 35 -76 65 -139 29 -63 56 -112 59 -109 3 3 -13 42 -35 87 -23 44 -41 84
-40 88 0 5 23 -36 50 -91 28 -54 52 -96 55 -93 3 3 -13 41 -35 86 -23 44 -41
84 -41 88 0 5 26 -41 58 -102 65 -123 92 -168 99 -161 3 3 -5 22 -17 43 -20
35 -20 36 -1 13 11 -14 21 -23 21 -20 0 3 -28 62 -63 130 -269 531 -272 1192
-7 1746 31 67 78 154 104 194 26 39 41 68 35 64 -7 -4 -10 -2 -7 7 3 8 11 14
19 14 8 0 14 9 14 20 0 11 6 19 13 17 8 -1 11 2 8 7 -4 5 8 27 26 48 18 21 22
29 9 18 -13 -11 -42 -46 -66 -77 -23 -31 -46 -54 -50 -50 -5 4 -5 1 -1 -6 4
-7 1 -15 -8 -18 -9 -3 -13 -10 -10 -15 3 -5 10 -7 15 -4 5 4 6 -2 2 -11 -4
-11 -8 -13 -11 -6 -2 8 -9 9 -23 2 -13 -8 -19 -7 -19 0 0 6 -5 8 -10 5 -14 -8
-13 -26 1 -22 6 1 14 -4 16 -11 3 -7 -1 -11 -9 -10 -7 2 -13 -4 -13 -12 0 -8
6 -14 13 -12 9 2 9 -5 -3 -28 -9 -16 -18 -30 -21 -30 -2 0 0 9 6 19 13 26 13
28 -5 28 -9 0 -14 -6 -11 -14 4 -9 1 -11 -5 -7 -7 4 -10 1 -7 -7 7 -20 -21
-71 -34 -63 -8 5 -9 1 -5 -10 5 -11 3 -15 -5 -10 -8 5 -9 2 -5 -10 4 -11 3
-15 -4 -10 -7 4 -9 0 -6 -12 4 -11 -1 -30 -9 -44 -9 -14 -13 -17 -10 -7 3 9 8
25 12 35 3 9 -8 -8 -24 -38 -33 -62 -81 -193 -118 -320 -13 -47 -22 -67 -18
-45 11 77 97 316 155 432 33 64 57 118 55 120 -9 9 -133 -251 -172 -362 -24
-66 -43 -115 -43 -108 -2 25 74 225 125 328 87 180 298 475 333 467 7 -1 10 2
7 7 -8 13 155 164 252 234 374 269 820 391 1263 346z m-67 -705 c3 -9 4 -20 0
-25 -3 -5 -1 -17 5 -26 16 -29 -5 -53 -44 -53 l-35 0 0 60 0 60 34 0 c22 0 36
-6 40 -16z m270 -39 c36 -37 27 -88 -20 -105 -40 -16 -84 19 -84 64 0 44 72
72 104 41z m-1831 -50 c-3 -9 -8 -14 -10 -11 -3 3 -2 9 2 15 9 16 15 13 8 -4z
m2057 -30 c0 -2 -7 -20 -16 -39 -33 -68 8 -91 45 -26 12 22 26 38 31 35 14 -9
-31 -94 -52 -101 -23 -7 -68 21 -68 42 0 21 39 94 50 94 6 0 10 -2 10 -5z
m-2102 -39 c-15 -30 -16 -30 -14 -3 0 13 6 24 13 24 9 0 9 -6 1 -21z m2358
-123 c40 -33 44 -48 10 -39 -20 5 -30 -1 -52 -29 -18 -24 -30 -33 -37 -26 -6
6 -1 21 17 41 28 34 32 45 16 55 -10 6 -5 25 6 25 3 0 21 -12 40 -27z m804
-13 c11 -22 18 -40 15 -40 -2 0 -14 18 -25 40 -11 22 -18 40 -15 40 2 0 14
-18 25 -40z m99 -216 c140 -352 163 -772 65 -1153 -47 -180 -181 -476 -264
-581 -11 -14 -38 -53 -61 -86 -149 -227 -431 -467 -704 -599 -106 -51 -274
-116 -298 -114 -7 0 25 13 69 29 124 42 277 112 264 120 -6 4 0 11 16 19 15 6
24 14 21 17 -3 3 -19 -2 -37 -11 -18 -9 -34 -15 -36 -13 -2 2 35 23 81 46 47
23 85 40 85 37 0 -2 -12 -11 -27 -19 l-28 -14 27 1 c14 1 24 5 22 9 -3 4 5 12
16 18 11 6 17 16 14 22 -5 7 -2 9 8 6 8 -4 15 -1 15 7 0 10 -6 11 -24 2 -16
-7 -20 -13 -12 -18 7 -4 1 -6 -14 -6 -14 1 -23 5 -21 9 2 3 -1 8 -7 10 -6 2 1
9 16 16 14 7 23 8 20 2 -8 -12 5 -13 24 -1 18 11 43 3 34 -12 -3 -6 -1 -7 6
-3 6 4 9 11 7 15 -3 4 8 15 24 24 20 12 28 24 25 38 -2 12 1 19 8 17 7 -2 13
2 13 7 1 6 -2 9 -8 7 -5 -1 -6 3 -2 9 4 7 1 10 -7 7 -8 -3 -13 -15 -13 -27 1
-11 -4 -21 -10 -20 -6 1 -18 1 -26 0 -13 -1 -13 -2 0 -11 13 -9 13 -10 0 -10
-12 0 -12 -2 -2 -9 11 -7 10 -9 -3 -14 -11 -5 -14 -3 -9 5 5 7 2 9 -8 6 -8 -4
-15 -1 -15 7 0 7 6 11 12 9 6 -3 12 2 12 11 0 18 -5 18 -37 0 -14 -8 -29 -14
-35 -14 -5 0 21 16 59 35 50 26 66 38 57 47 -8 8 -16 5 -31 -11 -24 -25 -25
-26 -52 -11 -11 6 -18 7 -14 1 3 -5 -8 -15 -24 -22 -16 -7 -28 -15 -26 -19 2
-3 -12 -6 -31 -7 l-36 -1 52 27 c29 14 49 28 46 31 -3 3 13 14 35 24 22 10 37
22 34 26 -6 11 -1 11 20 3 9 -3 13 -10 10 -15 -3 -5 2 -6 11 -3 10 4 15 2 13
-6 -2 -7 3 -15 10 -17 7 -3 11 1 10 7 -2 7 4 15 12 17 13 4 13 3 0 -6 -13 -10
-13 -11 0 -11 13 0 13 -1 0 -10 -8 -5 -10 -10 -5 -11 6 0 18 -2 28 -4 14 -3
16 0 7 10 -8 9 -6 14 5 19 9 3 13 11 9 18 -5 7 -2 9 8 5 21 -8 30 3 17 19 -8
10 -16 11 -30 3 -22 -11 -43 -3 -33 13 4 6 -2 6 -15 -1 -24 -13 -29 -23 -7
-15 8 3 17 1 20 -4 10 -17 -25 -23 -46 -8 -20 15 -20 15 15 32 20 10 34 21 31
26 -3 4 -1 8 3 8 5 0 18 7 29 16 18 14 18 15 -4 4 -13 -7 -26 -9 -29 -7 -8 9
38 29 53 23 8 -3 13 -2 9 3 -3 5 0 11 7 13 7 3 5 7 -6 11 -11 5 -15 3 -10 -5
5 -8 2 -9 -9 -5 -10 3 -17 3 -17 -1 0 -13 -89 -52 -95 -42 -3 4 11 14 30 20
21 7 32 16 29 22 -4 7 -2 8 4 4 7 -4 17 -2 24 4 7 6 22 17 33 25 18 13 17 14
-13 4 -18 -6 -36 -9 -39 -5 -4 3 0 6 8 6 12 0 11 2 -1 11 -12 8 -10 9 9 4 15
-5 21 -3 17 3 -4 7 5 7 30 0 37 -10 47 -7 50 16 1 9 -6 12 -20 9 -14 -3 -9 3
14 17 19 12 26 18 15 14 -41 -13 -59 -14 -30 0 17 8 42 12 56 9 16 -3 30 0 34
8 6 8 4 10 -6 5 -8 -4 -3 2 11 14 l25 21 -25 -6 c-22 -5 -23 -4 -7 5 10 7 24
9 32 6 15 -6 38 17 28 28 -4 4 0 4 9 1 9 -4 19 -1 24 6 5 8 3 10 -5 4 -10 -5
-9 -2 0 13 7 12 17 18 21 16 5 -3 5 -10 2 -16 -4 -7 -2 -8 4 -4 9 5 9 13 1 28
-8 15 -8 19 0 14 6 -4 11 -3 11 2 0 4 18 18 40 31 148 83 247 228 328 482 127
396 100 883 -69 1258 -16 35 -29 67 -29 70 1 14 32 -51 69 -145z m-3393 99
c-8 -15 -15 -25 -16 -21 0 12 23 58 27 54 3 -2 -2 -17 -11 -33z m1692 -38 l3
-50 -23 35 c-29 44 -71 59 -165 59 l-73 1 0 -116 0 -117 85 5 c72 4 89 8 110
28 l25 23 0 -58 0 -58 -25 27 c-22 24 -30 26 -110 26 l-85 0 0 -118 c0 -78 4
-122 12 -130 17 -17 151 -15 193 2 19 8 44 30 55 48 l20 33 0 -52 0 -53 -186
0 -185 0 15 22 c24 33 23 443 0 476 l-15 22 173 -2 173 -3 3 -50z m-1667 -12
c-12 -20 -14 -14 -5 12 4 9 9 14 11 11 3 -2 0 -13 -6 -23z m2596 -30 c-28 -26
-52 -41 -59 -37 -8 5 4 22 36 51 63 57 84 44 23 -14z m-2646 20 c-12 -20 -14
-14 -5 12 4 9 9 14 11 11 3 -2 0 -13 -6 -23z m-35 -99 c-8 -21 -15 -34 -15
-28 -1 15 20 76 25 71 2 -2 -2 -21 -10 -43z m15 -119 c-11 -38 -20 -64 -20
-57 -1 19 32 148 36 137 1 -6 -6 -41 -16 -80z m-64 43 c-3 -8 -6 -5 -6 6 -1
11 2 17 5 13 3 -3 4 -12 1 -19z m2905 5 c35 -31 12 -103 -33 -103 -12 0 -16
-5 -13 -15 4 -8 2 -15 -4 -15 -15 0 -52 64 -52 90 0 52 63 79 102 43z m-2885
-25 c-3 -8 -6 -5 -6 6 -1 11 2 17 5 13 3 -3 4 -12 1 -19z m-106 -124 c-35
-160 -44 -274 -38 -477 6 -203 27 -336 81 -512 14 -43 23 -81 21 -83 -4 -4
-45 129 -69 223 -61 246 -62 606 0 874 9 40 18 71 20 68 2 -2 -5 -44 -15 -93z
m66 74 c-3 -8 -6 -5 -6 6 -1 11 2 17 5 13 3 -3 4 -12 1 -19z m897 12 c-52 -21
-54 -33 -54 -343 0 -171 4 -296 10 -307 5 -10 38 -27 72 -39 277 -90 506 -123
595 -86 48 20 53 12 17 -26 -48 -51 -118 -80 -203 -86 -95 -7 -171 17 -386
122 -152 74 -234 104 -289 106 -22 1 -25 3 -10 6 54 10 55 16 52 334 l-3 294
-35 17 c-35 18 -35 18 110 17 92 0 137 -3 124 -9z m-877 -32 c-3 -8 -6 -5 -6
6 -1 11 2 17 5 13 3 -3 4 -12 1 -19z m-30 -30 c-3 -8 -6 -5 -6 6 -1 11 2 17 5
13 3 -3 4 -12 1 -19z m20 -20 c-3 -8 -6 -5 -6 6 -1 11 2 17 5 13 3 -3 4 -12 1
-19z m50 -10 c-3 -7 -5 -2 -5 12 0 14 2 19 5 13 2 -7 2 -19 0 -25z m-80 -20
c-3 -7 -5 -2 -5 12 0 14 2 19 5 13 2 -7 2 -19 0 -25z m-30 -20 c-3 -7 -5 -2
-5 12 0 14 2 19 5 13 2 -7 2 -19 0 -25z m50 0 c-3 -7 -5 -2 -5 12 0 14 2 19 5
13 2 -7 2 -19 0 -25z m50 -15 c-3 -10 -5 -4 -5 12 0 17 2 24 5 18 2 -7 2 -21
0 -30z m-80 -15 c-3 -7 -5 -2 -5 12 0 14 2 19 5 13 2 -7 2 -19 0 -25z m-30
-25 c-3 -10 -5 -4 -5 12 0 17 2 24 5 18 2 -7 2 -21 0 -30z m50 -10 c-3 -10 -5
-4 -5 12 0 17 2 24 5 18 2 -7 2 -21 0 -30z m50 -20 c-3 -10 -5 -2 -5 17 0 19
2 27 5 18 2 -10 2 -26 0 -35z m3003 34 c0 -8 -18 -19 -40 -26 -30 -9 -40 -17
-40 -33 0 -18 4 -20 38 -15 20 2 43 6 51 8 7 2 15 -1 18 -7 3 -10 -59 -34 -90
-34 -23 0 -50 45 -42 69 3 11 23 26 48 35 54 19 57 19 57 3z m-3083 -44 c-3
-10 -5 -4 -5 12 0 17 2 24 5 18 2 -7 2 -21 0 -30z m-30 -35 c-2 -13 -4 -5 -4
17 -1 22 1 32 4 23 2 -10 2 -28 0 -40z m50 -10 c-2 -13 -4 -5 -4 17 -1 22 1
32 4 23 2 -10 2 -28 0 -40z m180 10 c-3 -7 -5 -2 -5 12 0 14 2 19 5 13 2 -7 2
-19 0 -25z m-130 -40 c-2 -13 -4 -3 -4 22 0 25 2 35 4 23 2 -13 2 -33 0 -45z
m-80 -15 c-2 -16 -4 -5 -4 22 0 28 2 40 4 28 2 -13 2 -35 0 -50z m-30 -55 c-2
-18 -4 -6 -4 27 0 33 2 48 4 33 2 -15 2 -42 0 -60z m250 -28 c11 -27 13 -69 3
-75 -6 -4 -10 10 -11 32 -1 35 -2 36 -10 13 -6 -18 -7 -9 -4 30 3 30 6 69 7
85 1 17 3 8 5 -20 2 -27 6 -57 10 -65z m-100 23 c-2 -16 -4 -3 -4 27 0 30 2
43 4 28 2 -16 2 -40 0 -55z m-100 -66 c-2 -23 -3 -1 -3 48 0 50 1 68 3 42 2
-26 2 -67 0 -90z m50 -124 c-1 -43 -3 -8 -3 77 0 85 2 120 3 78 2 -43 2 -113
0 -155z m-80 -10 c-1 -43 -3 -10 -3 72 0 83 2 118 3 78 2 -40 2 -107 0 -150z
m-30 34 c-2 -23 -3 -1 -3 48 0 50 1 68 3 42 2 -26 2 -67 0 -90z m282 33 c-8
-6 -10 -22 -6 -52 3 -24 2 -50 -3 -58 -7 -10 -10 4 -10 46 0 33 3 64 8 68 4 4
8 12 8 17 5 37 8 40 11 15 3 -16 -1 -32 -8 -36z m2921 25 c0 -37 -16 -49 -22
-15 -4 25 -23 22 -22 -2 0 -10 -5 -18 -13 -18 -7 0 -13 9 -13 20 0 11 -7 20
-15 20 -9 0 -15 -9 -15 -25 0 -14 -4 -25 -10 -25 -5 0 -10 15 -10 34 0 38 8
43 78 45 42 1 42 1 42 -34z m-2971 -35 c-2 -21 1 -43 6 -47 4 -4 6 -3 3 2 -3
6 -2 19 2 30 5 13 8 1 8 -35 -1 -42 -3 -49 -9 -30 -8 28 -5 -55 7 -155 4 -33
4 -57 0 -53 -8 6 -11 34 -21 158 -3 41 -8 83 -11 93 -6 18 4 77 13 77 2 0 3
-18 2 -40z m-172 -132 c-2 -24 -4 -7 -4 37 0 44 2 63 4 43 2 -21 2 -57 0 -80z
m-44 -48 c3 -65 2 -81 -3 -50 -9 45 -13 157 -6 149 2 -2 6 -47 9 -99z m283 73
c-10 -10 -19 5 -10 18 6 11 8 11 12 0 2 -7 1 -15 -2 -18z m-26 -38 c2 14 5 11
9 -10 9 -38 1 -68 -10 -39 -7 18 -8 18 -9 -1 -2 -17 -3 -16 -9 5 -4 14 -5 34
-2 44 4 20 4 20 12 0 7 -19 8 -19 9 1z m27 -7 c-3 -8 -6 -5 -6 6 -1 11 2 17 5
13 3 -3 4 -12 1 -19z m-241 -193 c-4 -14 -26 140 -25 178 1 18 7 -13 15 -68 7
-55 12 -104 10 -110z m61 143 c-2 -13 -4 -3 -4 22 0 25 2 35 4 23 2 -13 2 -33
0 -45z m-29 -158 c-1 -29 -27 115 -27 150 1 19 7 -3 15 -50 7 -47 13 -92 12
-100z m241 138 c-1 -20 -3 -26 -6 -14 -4 15 -7 16 -14 5 -7 -12 -9 -11 -9 2 0
13 18 39 27 39 2 0 2 -15 2 -32z m-182 -25 c-3 -10 -5 -4 -5 12 0 17 2 24 5
18 2 -7 2 -21 0 -30z m126 8 c2 -10 1 -25 -4 -32 -6 -10 -9 -4 -9 19 0 36 5
42 13 13z m20 0 c2 -10 1 -24 -3 -30 -4 -7 -7 1 -8 18 -1 35 3 40 11 12z
m-166 -48 c-3 -10 -5 -2 -5 17 0 19 2 27 5 18 2 -10 2 -26 0 -35z m62 -5 c1
-5 -3 -8 -9 -8 -5 0 -10 12 -9 28 0 24 1 25 9 7 5 -11 9 -23 9 -27z m128 0
c-3 -7 -5 -2 -5 12 0 14 2 19 5 13 2 -7 2 -19 0 -25z m20 -5 c-3 -10 -5 -4 -5
12 0 17 2 24 5 18 2 -7 2 -21 0 -30z m-103 -25 c-4 -6 -10 -5 -15 3 -7 11 -9
9 -10 -6 l0 -20 -9 20 c-8 18 -9 18 -10 -5 -1 -14 -4 -19 -7 -12 -8 21 18 66
29 50 5 -9 8 -7 8 7 1 18 2 18 11 -3 5 -13 6 -28 3 -34z m160 13 c-4 -17 -9
-30 -11 -27 -3 2 -2 19 2 36 9 41 17 33 9 -9z m-330 -166 c5 -25 5 -26 -3 -8
-12 27 -41 166 -40 190 1 16 9 -18 43 -182z m93 163 c-3 -7 -5 -2 -5 12 0 14
2 19 5 13 2 -7 2 -19 0 -25z m100 -25 c-3 -10 -5 -4 -5 12 0 17 2 24 5 18 2
-7 2 -21 0 -30z m-120 -5 c-3 -7 -5 -2 -5 12 0 14 2 19 5 13 2 -7 2 -19 0 -25z
m170 -10 c-3 -7 -5 -2 -5 12 0 14 2 19 5 13 2 -7 2 -19 0 -25z m20 0 c-3 -7
-5 -2 -5 12 0 14 2 19 5 13 2 -7 2 -19 0 -25z m20 0 c-3 -7 -5 -2 -5 12 0 14
2 19 5 13 2 -7 2 -19 0 -25z m-52 -39 c3 -18 3 -31 0 -28 -3 4 -8 16 -10 28
-2 13 -7 32 -10 44 -5 18 -4 19 4 6 6 -9 13 -31 16 -50z m-128 19 c-3 -7 -5
-2 -5 12 0 14 2 19 5 13 2 -7 2 -19 0 -25z m57 7 c3 -8 1 -15 -4 -15 -6 0 -10
7 -10 15 0 8 2 15 4 15 2 0 6 -7 10 -15z m175 -14 c0 -10 -2 -11 -6 -3 -2 6
-8 10 -12 8 -4 -3 -8 1 -8 8 0 8 6 12 14 9 7 -3 13 -13 12 -22z m-332 -13 c-3
-7 -5 -2 -5 12 0 14 2 19 5 13 2 -7 2 -19 0 -25z m80 0 c-3 -7 -5 -2 -5 12 0
14 2 19 5 13 2 -7 2 -19 0 -25z m126 19 c3 -8 1 -20 -4 -28 -6 -10 -9 -7 -9
14 0 29 5 35 13 14z m-76 -19 c-3 -8 -6 -5 -6 6 -1 11 2 17 5 13 3 -3 4 -12 1
-19z m83 -66 c13 -17 27 -29 32 -26 4 3 8 -2 8 -11 0 -9 -4 -13 -10 -10 -5 3
-10 0 -11 -7 0 -7 -6 3 -13 22 -6 19 -17 34 -23 33 -6 -1 -14 12 -18 30 -6 28
-8 30 -15 12 -5 -11 -9 -14 -9 -7 -1 7 5 21 12 32 11 20 12 19 18 -8 3 -16 16
-43 29 -60z m73 73 c-3 11 -3 17 1 13 7 -5 11 -21 16 -53 1 -5 6 -1 11 10 8
16 8 15 4 -8 -4 -19 -2 -26 5 -22 5 3 10 -2 11 -12 0 -16 1 -16 10 2 8 17 9
17 4 -5 -2 -14 -5 -32 -6 -40 0 -8 -4 -5 -7 8 -4 13 -11 23 -16 22 -5 -1 -15
14 -21 32 -6 18 -16 32 -23 31 -7 -2 -12 7 -12 19 0 21 0 21 15 2 15 -19 15
-19 8 1z m-245 -60 c0 -16 -2 -15 -8 5 -4 14 -8 34 -8 45 0 16 2 15 8 -5 4
-14 8 -34 8 -45z m209 33 c-3 -7 -5 -2 -5 12 0 14 2 19 5 13 2 -7 2 -19 0 -25z
m-229 -58 c0 -9 -3 -7 -8 5 -5 11 -8 29 -8 40 0 16 2 15 8 -5 4 -14 8 -32 8
-40z m69 38 c-3 -8 -6 -5 -6 6 -1 11 2 17 5 13 3 -3 4 -12 1 -19z m50 -10 c-3
-8 -6 -5 -6 6 -1 11 2 17 5 13 3 -3 4 -12 1 -19z m78 12 c3 -5 1 -10 -4 -10
-6 0 -11 5 -11 10 0 6 2 10 4 10 3 0 8 -4 11 -10z m62 -4 c-3 -7 -1 -18 4 -23
5 -5 12 -19 14 -31 3 -12 7 -31 9 -42 3 -12 1 -18 -5 -15 -5 4 -6 12 -3 18 5
8 2 8 -7 -1 -11 -10 -11 -15 3 -28 21 -21 38 -10 31 19 -8 32 2 18 15 -22 11
-30 10 -32 -5 -20 -15 12 -16 12 -10 -5 6 -15 5 -17 -6 -8 -8 7 -18 8 -22 4
-5 -4 -5 -2 -2 5 4 6 -4 20 -18 31 -24 19 -36 40 -15 27 6 -4 8 5 6 22 -2 15
-1 21 1 13 10 -31 24 -35 19 -6 -7 41 -31 56 -48 31 -4 -5 -8 0 -8 12 0 17 5
21 20 18 11 -2 20 0 20 6 0 5 3 9 6 9 3 0 4 -6 1 -14z m1443 -1 c0 -10 -11
-15 -35 -15 -28 0 -35 -4 -35 -20 0 -16 7 -20 35 -20 24 0 35 -5 35 -15 0 -10
-11 -15 -35 -15 -31 0 -35 -3 -35 -25 0 -18 -5 -25 -20 -25 -18 0 -20 7 -20
68 0 38 3 72 7 75 3 4 28 7 55 7 36 0 48 -4 48 -15z m80 -60 c0 -60 -3 -75
-15 -75 -12 0 -15 15 -15 75 0 60 3 75 15 75 12 0 15 -15 15 -75z m170 60 c0
-9 -9 -15 -25 -15 -24 0 -25 -3 -25 -60 0 -47 -3 -60 -15 -60 -12 0 -15 13
-15 60 0 57 -1 60 -25 60 -16 0 -25 6 -25 15 0 12 14 15 65 15 51 0 65 -3 65
-15z m70 -60 c0 -60 -3 -75 -15 -75 -12 0 -15 15 -15 75 0 60 3 75 15 75 12 0
15 -15 15 -75z m160 60 c0 -10 -11 -15 -35 -15 -28 0 -35 -4 -35 -20 0 -16 7
-20 35 -20 24 0 35 -5 35 -15 0 -10 -11 -15 -35 -15 -31 0 -35 -3 -35 -25 0
-18 -5 -25 -20 -25 -18 0 -20 7 -20 68 0 38 3 72 7 75 3 4 28 7 55 7 36 0 48
-4 48 -15z m148 -37 c33 -91 35 -98 18 -98 -8 0 -18 9 -21 20 -4 14 -15 20
-35 20 -19 0 -29 -6 -33 -20 -3 -11 -12 -20 -21 -20 -13 0 -13 7 4 54 39 114
58 123 88 44z m178 38 c26 -20 10 -32 -21 -16 -18 10 -28 11 -36 3 -16 -16 -4
-30 31 -38 17 -4 35 -15 40 -25 13 -24 13 -26 -6 -44 -19 -20 -74 -21 -100 -2
-26 19 -10 33 20 17 13 -7 32 -11 42 -9 33 6 21 31 -21 42 -31 9 -41 17 -43
36 -7 43 53 66 94 36z m102 -19 c3 -22 8 -27 33 -27 26 0 29 3 29 30 0 20 5
30 15 30 12 0 15 -15 15 -75 0 -60 -3 -75 -15 -75 -10 0 -15 10 -15 30 0 27
-3 30 -30 30 -27 0 -30 -3 -30 -30 0 -23 -4 -30 -20 -30 -18 0 -20 7 -20 68 0
38 3 72 7 76 13 12 28 -1 31 -27z m313 23 c25 -14 24 -25 -3 -50 -18 -16 -19
-23 -9 -33 10 -9 14 -8 22 6 14 24 32 11 19 -13 -13 -25 -13 -30 5 -30 8 0 15
-4 15 -9 0 -4 -27 -9 -59 -9 -75 -1 -94 15 -68 60 9 16 17 37 17 47 0 18 18
41 33 41 4 0 17 -5 28 -10z m-2844 -52 c-3 -8 -6 -5 -6 6 -1 11 2 17 5 13 3
-3 4 -12 1 -19z m50 0 c-3 -8 -6 -5 -6 6 -1 11 2 17 5 13 3 -3 4 -12 1 -19z
m-100 -10 c-3 -8 -6 -5 -6 6 -1 11 2 17 5 13 3 -3 4 -12 1 -19z m150 0 c-3 -8
-6 -5 -6 6 -1 11 2 17 5 13 3 -3 4 -12 1 -19z m120 -10 c-3 -8 -6 -5 -6 6 -1
11 2 17 5 13 3 -3 4 -12 1 -19z m109 -15 c-3 -4 -6 -1 -6 6 0 7 -4 9 -10 6 -6
-4 -7 1 -3 11 6 15 7 15 15 -1 6 -9 7 -19 4 -22z m-387 -23 c0 -9 -4 -8 -9 5
-5 11 -9 27 -9 35 0 9 4 8 9 -5 5 -11 9 -27 9 -35z m118 18 c-3 -8 -6 -5 -6 6
-1 11 2 17 5 13 3 -3 4 -12 1 -19z m-101 -155 c-5 -5 -56 147 -55 162 0 6 14
-28 30 -74 16 -47 27 -86 25 -88z m50 0 c-5 -5 -56 147 -55 162 0 6 14 -28 30
-74 16 -47 27 -86 25 -88z m339 147 c-3 -5 -2 -10 3 -10 6 0 12 -7 16 -15 3
-8 2 -14 -2 -14 -4 1 -14 1 -22 0 -13 -1 -13 -2 0 -11 9 -6 10 -10 3 -10 -6 0
-15 5 -18 10 -4 6 -10 8 -15 5 -5 -3 -11 -1 -14 4 -3 4 2 8 12 8 40 0 45 3 33
16 -6 8 -8 17 -4 20 10 10 15 8 8 -3z m-328 -22 c-3 -8 -6 -5 -6 6 -1 11 2 17
5 13 3 -3 4 -12 1 -19z m-58 -53 c0 -5 -4 -3 -9 5 -5 8 -9 22 -9 30 0 16 17
-16 18 -35z m420 -2 c9 -18 8 -21 -7 -19 -9 2 -17 8 -16 14 3 40 4 41 23 5z
m-61 -8 c-3 -3 -9 2 -12 12 -6 14 -5 15 5 6 7 -7 10 -15 7 -18z m-45 2 c4 3 7
1 7 -5 0 -18 -27 -14 -34 4 -5 13 -4 14 7 6 8 -7 17 -9 20 -5z m40 -36 c4 -17
2 -18 -14 -8 -11 7 -15 13 -9 15 6 2 7 9 4 14 -4 6 -2 8 3 5 6 -4 13 -15 16
-26z m29 10 c8 11 9 11 6 1 -4 -16 -22 -18 -24 -2 -2 7 -1 6 3 -1 4 -8 8 -7
15 2z m-336 -98 c-4 -4 -36 73 -35 85 0 4 9 -13 20 -37 11 -24 18 -46 15 -48z
m371 69 c-10 -10 -16 -21 -15 -23 2 -2 1 -3 -1 -1 -3 1 -6 9 -7 17 -1 8 2 13
6 10 5 -3 11 -1 15 5 3 5 9 10 12 10 3 0 -1 -8 -10 -18z m-307 -27 c0 -5 -5
-3 -10 5 -5 8 -10 20 -10 25 0 6 5 3 10 -5 5 -8 10 -19 10 -25z m1530 20 c0
-11 -11 -15 -40 -15 -33 0 -40 -3 -40 -20 0 -17 7 -20 41 -20 52 0 48 -24 -4
-28 -32 -3 -37 -7 -37 -28 0 -15 -6 -24 -15 -24 -12 0 -15 15 -15 75 l0 75 55
0 c42 0 55 -3 55 -15z m80 -60 c0 -60 -3 -75 -15 -75 -12 0 -15 15 -15 75 0
60 3 75 15 75 12 0 15 -15 15 -75z m160 60 c0 -8 -9 -15 -20 -15 -18 0 -20 -7
-20 -60 0 -53 -2 -60 -20 -60 -18 0 -20 7 -20 60 0 53 -2 60 -20 60 -11 0 -20
7 -20 15 0 12 13 15 60 15 47 0 60 -3 60 -15z m78 -63 c3 -67 1 -72 -18 -72
-18 0 -20 6 -20 68 0 38 3 72 7 76 18 17 28 -7 31 -72z m164 48 c24 -29 23
-61 -3 -94 -17 -21 -29 -26 -65 -26 l-44 0 0 76 0 77 47 -6 c32 -3 53 -12 65
-27z m178 15 c0 -11 -11 -15 -40 -15 -29 0 -40 -4 -40 -15 0 -11 11 -15 40
-15 29 0 40 -4 40 -15 0 -11 -11 -15 -40 -15 -33 0 -40 -3 -40 -20 0 -17 7
-20 45 -20 25 0 45 -4 45 -10 0 -6 -27 -10 -60 -10 l-60 0 0 75 0 75 55 0 c42
0 55 -3 55 -15z m156 1 c26 -20 10 -32 -21 -16 -18 10 -28 11 -36 3 -16 -16
-4 -30 31 -38 17 -4 35 -15 40 -25 13 -24 13 -26 -6 -44 -19 -20 -74 -21 -100
-2 -26 19 -10 33 20 17 13 -7 32 -11 42 -9 33 6 21 31 -21 42 -31 9 -41 17
-43 36 -7 43 53 66 94 36z m94 -61 c0 -60 -3 -75 -15 -75 -12 0 -15 15 -15 75
0 60 3 75 15 75 12 0 15 -15 15 -75z m170 57 c20 -16 21 -20 7 -25 -9 -3 -19
-2 -22 3 -4 6 -17 10 -30 10 -47 0 -59 -81 -15 -95 22 -7 60 2 60 15 0 4 -9
10 -20 13 -33 9 -23 29 13 25 68 -6 33 -78 -38 -78 -43 0 -64 19 -71 62 -11
68 63 113 116 70z m138 -32 c15 -27 29 -50 32 -50 3 0 5 21 5 47 0 28 5 48 13
50 9 4 12 -15 12 -71 0 -66 -2 -76 -17 -76 -11 0 -30 21 -48 53 l-30 52 -3
-52 c-5 -81 -22 -63 -22 22 0 92 17 99 58 25z m-2838 -15 c0 -5 -5 -3 -10 5
-5 8 -10 20 -10 25 0 6 5 3 10 -5 5 -8 10 -19 10 -25z m93 -87 c31 -65 54
-118 51 -118 -6 0 -114 221 -114 234 0 15 3 8 63 -116z m17 67 c0 -5 -5 -3
-10 5 -5 8 -10 20 -10 25 0 6 5 3 10 -5 5 -8 10 -19 10 -25z m450 -9 c0 -3 -4
-8 -10 -11 -5 -3 -10 -1 -10 4 0 6 5 11 10 11 6 0 10 -2 10 -4z m-400 -51 c0
-5 -5 -3 -10 5 -5 8 -10 20 -10 25 0 6 5 3 10 -5 5 -8 10 -19 10 -25z m-1 -42
c12 -24 19 -43 16 -43 -5 0 -45 75 -45 86 0 11 6 2 29 -43z m141 -8 c0 -5 -5
-3 -10 5 -5 8 -10 20 -10 25 0 6 5 3 10 -5 5 -8 10 -19 10 -25z m-90 -45 c6
-11 8 -20 6 -20 -3 0 -10 9 -16 20 -6 11 -8 20 -6 20 3 0 10 -9 16 -20z m745
-18 c-3 -3 -11 0 -18 7 -9 10 -8 11 6 5 10 -3 15 -9 12 -12z m-745 -22 c6 -11
8 -20 6 -20 -3 0 -10 9 -16 20 -6 11 -8 20 -6 20 3 0 10 -9 16 -20z m836 -42
l29 -33 -31 28 c-17 15 -34 24 -39 20 -4 -5 -5 -2 -1 5 9 16 8 17 42 -20z
m-231 -78 c10 -11 16 -20 13 -20 -3 0 -13 9 -23 20 -10 11 -16 20 -13 20 3 0
13 -9 23 -20z m2200 2 c-3 -3 -11 0 -18 7 -9 10 -8 11 6 5 10 -3 15 -9 12 -12z
m-2724 -9 c13 -16 12 -17 -3 -4 -10 7 -18 15 -18 17 0 8 8 3 21 -13z m42 -39
c4 -1 9 -3 12 -4 3 -1 9 -3 14 -4 5 0 12 -4 16 -8 6 -5 -25 -3 -32 2 -2 2 -7
3 -12 4 -6 0 -16 7 -23 15 -11 12 -10 12 2 5 8 -5 18 -9 23 -10z m-82 -11 c13
-16 12 -17 -3 -4 -10 7 -18 15 -18 17 0 8 8 3 21 -13z m140 -50 c13 -16 12
-17 -3 -4 -17 13 -22 21 -14 21 2 0 10 -8 17 -17z m2346 -29 c-3 -3 -12 -4
-19 -1 -8 3 -5 6 6 6 11 1 17 -2 13 -5z m63 -3 c0 -5 -9 -11 -20 -14 -11 -3
-20 -1 -20 3 0 5 8 11 18 13 9 3 18 5 20 6 1 0 2 -3 2 -8z m-2380 -26 c13 -14
21 -25 18 -25 -2 0 -15 11 -28 25 -13 14 -21 25 -18 25 2 0 15 -11 28 -25z
m123 -18 c4 3 7 4 7 0 0 -18 -20 -13 -41 11 l-24 27 26 -23 c14 -12 29 -19 32
-15z m2204 27 c-3 -3 -12 -4 -19 -1 -8 3 -5 6 6 6 11 1 17 -2 13 -5z m-2252
-123 c-3 -2 7 -18 22 -35 25 -27 24 -27 -9 3 -21 19 -35 37 -33 40 3 3 -18 30
-47 60 l-53 56 62 -59 c34 -33 60 -62 58 -65z m1955 109 c0 -5 -4 -10 -10 -10
-5 0 -10 5 -10 10 0 6 5 10 10 10 6 0 10 -4 10 -10z m-33 -7 c-4 -3 1 -12 11
-20 15 -13 15 -13 -5 -3 -16 7 -23 7 -23 0 0 -5 -8 -10 -17 -10 -16 0 -16 -2
-3 -11 12 -9 10 -10 -8 -6 -16 4 -22 2 -19 -7 4 -9 -3 -12 -21 -9 l-27 4 25
-15 c14 -8 21 -15 15 -15 -5 -1 -17 3 -25 8 -8 6 -18 7 -24 4 -5 -4 -1 -10 10
-15 17 -7 16 -8 -3 -4 -13 2 -26 0 -29 -5 -3 -5 5 -9 18 -10 13 0 17 -3 10 -6
-7 -3 -20 -2 -30 3 -9 4 -23 6 -31 5 -7 -1 -10 2 -6 8 4 7 0 8 -10 4 -12 -4
-13 -8 -5 -13 9 -6 9 -9 -1 -15 -9 -6 -8 -10 7 -16 16 -6 16 -8 2 -8 -9 -1
-20 4 -23 9 -4 6 -11 8 -16 4 -6 -4 -3 -14 8 -27 18 -20 18 -21 -6 -5 -13 9
-30 14 -37 11 -8 -3 -14 0 -14 6 0 6 9 11 21 11 12 0 23 8 26 19 2 10 20 25
39 35 42 19 47 20 39 4 -4 -7 -1 -6 7 3 14 17 108 72 108 63 0 -3 7 2 16 10 8
9 18 16 21 16 4 0 3 -3 0 -7z m338 -28 c-16 -8 -39 -14 -50 -14 -13 0 -8 5 15
14 46 18 74 17 35 0z m-78 -1 c-3 -3 -12 -4 -19 -1 -8 3 -5 6 6 6 11 1 17 -2
13 -5z m-2192 -12 c-3 -3 5 -17 17 -31 19 -21 17 -20 -10 3 -37 35 -36 33 -17
33 8 0 13 -3 10 -5z m-54 -19 c13 -16 12 -17 -3 -4 -17 13 -22 21 -14 21 2 0
10 -8 17 -17z m2176 11 c-3 -3 -12 -4 -19 -1 -8 3 -5 6 6 6 11 1 17 -2 13 -5z
m117 -40 c-16 -6 -45 -14 -64 -17 l-35 -6 34 15 c19 9 43 16 53 17 12 1 16 7
13 16 -5 12 -3 12 11 0 15 -12 14 -15 -12 -25z m83 30 c-3 -3 -12 -4 -19 -1
-8 3 -5 6 6 6 11 1 17 -2 13 -5z m-38 -35 c-19 -10 -41 -18 -49 -18 -8 0 0 8
18 17 18 10 30 21 26 24 -3 4 4 4 16 1 21 -6 21 -7 -11 -24z m-154 -4 c-16 -7
-46 -15 -65 -19 -24 -3 -17 1 20 13 64 22 89 25 45 6z m-148 -11 c-3 -3 -12
-4 -19 -1 -8 3 -5 6 6 6 11 1 17 -2 13 -5z m-1902 -52 c-3 -3 3 -15 12 -26 18
-21 18 -21 -5 -2 -12 11 -20 22 -17 24 3 3 -5 17 -17 31 l-23 26 27 -24 c16
-14 26 -27 23 -29z m1615 43 c0 -3 -17 -12 -37 -21 l-38 -16 30 -13 c20 -10
23 -14 10 -12 -11 1 -19 -3 -18 -10 2 -7 -4 -10 -13 -6 -9 3 -20 0 -25 -8 -7
-11 -9 -11 -9 3 0 9 5 18 12 20 6 2 9 10 7 17 -4 11 -8 10 -21 -3 -11 -11 -18
-12 -20 -4 -3 8 -12 4 -25 -9 -14 -14 -23 -18 -26 -10 -3 9 -8 9 -20 -1 -9 -8
-20 -11 -25 -8 -6 3 -15 -1 -22 -9 -15 -18 -34 -20 -24 -3 4 7 3 8 -5 4 -16
-10 -82 -16 -76 -7 2 4 35 13 72 20 37 7 111 27 163 46 103 36 110 37 110 30z
m530 -14 c0 -4 -18 -16 -40 -26 -23 -11 -37 -22 -33 -29 4 -6 0 -5 -9 2 -8 7
-23 10 -32 6 -9 -3 -16 -4 -16 -1 0 2 27 15 60 27 35 13 57 27 53 33 -3 6 -1
7 5 3 7 -4 12 -11 12 -15z m-2215 -11 c10 -11 16 -20 13 -20 -3 0 -13 9 -23
20 -10 11 -16 20 -13 20 3 0 13 -9 23 -20z m1770 10 c3 -5 12 -7 20 -3 8 3 15
3 15 0 0 -13 -28 -13 -45 -1 -10 8 -14 14 -8 14 7 0 14 -4 18 -10z m582 -5 c0
-8 -6 -16 -14 -19 -15 -6 -13 15 2 26 6 4 10 8 11 8 0 0 1 -7 1 -15z m-370 -1
c-3 -3 -12 -4 -19 -1 -8 3 -5 6 6 6 11 1 17 -2 13 -5z m-40 -10 c-3 -3 -12 -4
-19 -1 -8 3 -5 6 6 6 11 1 17 -2 13 -5z m143 -14 c-8 -5 -33 -12 -55 -15 -22
-4 -64 -14 -93 -22 -30 -8 -55 -13 -58 -11 -6 6 165 56 196 57 19 0 22 -1 10
-9z m-1979 -17 c13 -16 12 -17 -3 -4 -10 7 -18 15 -18 17 0 8 8 3 21 -13z
m803 -2 c15 -6 16 -9 5 -13 -8 -3 -20 1 -27 8 -14 15 -7 17 22 5z m913 3 c-3
-3 -12 -4 -19 -1 -8 3 -5 6 6 6 11 1 17 -2 13 -5z m-1782 -24 c10 -11 16 -20
13 -20 -3 0 -13 9 -23 20 -10 11 -16 20 -13 20 3 0 13 -9 23 -20z m1660 10 c3
-5 1 -10 -4 -10 -6 0 -11 5 -11 10 0 6 2 10 4 10 3 0 8 -4 11 -10z m160 0
c-11 -5 -27 -9 -35 -9 -9 0 -8 4 5 9 11 5 27 9 35 9 9 0 8 -4 -5 -9z m224 -4
c10 -12 5 -17 -26 -27 -21 -8 -45 -14 -53 -15 -8 -1 -28 -4 -45 -8 -16 -3 3 6
44 20 51 18 69 29 60 35 -8 5 -9 9 -3 9 6 0 17 -6 23 -14z m-2064 -16 c10 -11
16 -20 13 -20 -3 0 -13 9 -23 20 -10 11 -16 20 -13 20 3 0 13 -9 23 -20z m940
10 c-3 -5 -10 -10 -16 -10 -5 0 -9 5 -9 10 0 6 7 10 16 10 8 0 12 -4 9 -10z
m610 0 c-3 -5 -13 -10 -21 -10 -8 0 -14 -4 -14 -10 0 -5 -12 -10 -26 -10 -14
0 -23 -4 -19 -9 3 -5 1 -12 -5 -16 -5 -3 -10 -1 -10 6 0 10 -3 10 -12 1 -7 -7
-20 -12 -30 -12 -10 0 -18 -4 -18 -9 0 -5 -6 -8 -12 -8 -25 1 -98 -16 -94 -22
2 -3 -8 -7 -22 -8 -52 -4 -137 -25 -144 -36 -5 -8 -8 -9 -8 -1 0 7 -12 10 -27
7 -16 -2 -57 -6 -93 -10 -36 -3 -66 -9 -68 -14 -2 -5 -13 -9 -23 -9 -11 0 -18
4 -14 10 3 5 -13 7 -44 3 -39 -4 -54 -2 -73 13 -24 19 -23 19 141 19 159 0
240 6 285 22 12 4 26 7 31 8 34 4 179 47 190 57 5 4 17 8 28 8 10 0 16 4 13 8
-2 4 7 9 21 10 13 1 32 6 41 12 22 12 35 13 27 0z m-570 -10 c-3 -5 -11 -10
-16 -10 -6 0 -7 5 -4 10 3 6 11 10 16 10 6 0 7 -4 4 -10z m1185 -5 c-14 -8
-29 -14 -35 -14 -5 0 1 6 15 14 14 8 30 14 35 14 6 0 -1 -6 -15 -14z m-1012
-5 c29 0 51 -4 48 -9 -6 -8 -129 -6 -175 3 -48 10 -35 19 19 12 30 -3 79 -6
108 -6z m135 -10 c-21 -24 -24 -25 -17 -5 7 18 0 19 -27 5 -10 -6 -19 -7 -19
-2 0 16 13 22 47 22 32 0 32 -1 16 -20z m312 10 c3 -5 1 -10 -4 -10 -6 0 -11
5 -11 10 0 6 2 10 4 10 3 0 8 -4 11 -10z m66 1 c-11 -7 -10 -10 5 -13 17 -3
17 -4 -2 -10 -20 -5 -23 2 -15 30 1 1 7 2 14 2 8 0 8 -3 -2 -9z m66 -7 c-3 -3
-12 -4 -19 -1 -8 3 -5 6 6 6 11 1 17 -2 13 -5z m78 -4 c-11 -5 -27 -9 -35 -9
-9 0 -8 4 5 9 11 5 27 9 35 9 9 0 8 -4 -5 -9z m-1764 -17 c13 -16 12 -17 -3
-4 -17 13 -22 21 -14 21 2 0 10 -8 17 -17z m1274 7 c-3 -5 -12 -10 -18 -10 -7
0 -6 4 3 10 19 12 23 12 15 0z m945 -5 c0 -2 -6 -5 -13 -8 -8 -3 -14 1 -14 8
0 7 6 11 14 8 7 -3 13 -6 13 -8z m-513 -1 c-3 -3 -12 -4 -19 -1 -8 3 -5 6 6 6
11 1 17 -2 13 -5z m313 -4 c8 0 -5 -9 -29 -20 -24 -11 -51 -20 -60 -19 -9 0 2
9 24 19 58 27 30 24 -56 -6 -83 -28 -308 -84 -336 -83 -10 0 59 20 152 44 94
23 188 50 210 59 22 8 49 13 60 11 11 -3 27 -5 35 -5z m-443 -6 c-15 -15 19
-31 48 -23 16 5 37 9 45 8 8 0 -7 -7 -35 -15 -27 -7 -51 -9 -53 -5 -2 5 -13 7
-25 5 -21 -4 -21 -4 -2 5 11 5 16 10 12 10 -9 1 1 21 10 21 4 0 4 -3 0 -6z
m80 0 c-3 -3 -12 -4 -19 -1 -8 3 -5 6 6 6 11 1 17 -2 13 -5z m170 -10 c-3 -3
-12 -4 -19 -1 -8 3 -5 6 6 6 11 1 17 -2 13 -5z m223 -4 c-8 -5 -19 -10 -25
-10 -5 0 -3 5 5 10 8 5 20 10 25 10 6 0 3 -5 -5 -10z m-263 -6 c-3 -3 -12 -4
-19 -1 -8 3 -5 6 6 6 11 1 17 -2 13 -5z m-277 -19 c0 -1 -8 -5 -18 -7 -11 -3
-19 0 -19 7 0 7 8 10 19 7 10 -2 18 -6 18 -7z m195 -1 c-27 -7 -54 -13 -60
-13 -17 2 69 27 90 27 11 0 -2 -6 -30 -14z m295 6 c-8 -5 -19 -10 -25 -10 -5
0 -3 5 5 10 8 5 20 10 25 10 6 0 3 -5 -5 -10z m50 -5 c-14 -8 -29 -14 -35 -14
-5 0 1 6 15 14 14 8 30 14 35 14 6 0 -1 -6 -15 -14z m-430 -24 c-8 -5 -33 -12
-55 -15 l-40 -6 45 14 c53 17 71 19 50 7z m239 -5 c9 -11 -3 -18 -69 -36 -106
-28 -291 -70 -310 -70 -31 1 14 17 65 24 56 8 136 27 239 58 49 14 65 22 55
29 -8 5 -9 9 -3 9 6 0 17 -6 23 -14z m131 4 c-8 -5 -19 -10 -25 -10 -5 0 -3 5
5 10 8 5 20 10 25 10 6 0 3 -5 -5 -10z m-503 -6 c-3 -3 -12 -4 -19 -1 -8 3 -5
6 6 6 11 1 17 -2 13 -5z m513 -13 c-19 -10 -46 -21 -60 -25 -14 -3 -2 5 25 18
58 28 87 34 35 7z m-710 -1 c8 -5 11 -10 5 -10 -5 0 -17 5 -25 10 -8 5 -10 10
-5 10 6 0 17 -5 25 -10z m150 0 c-8 -5 -24 -9 -35 -9 -16 1 -16 2 5 9 35 11
48 11 30 0z m508 5 c-7 -8 -150 -55 -162 -54 -6 0 25 13 69 29 80 28 103 35
93 25z m-1235 -12 c-7 -2 -19 -2 -25 0 -7 3 -2 5 12 5 14 0 19 -2 13 -5z m786
3 c-2 -2 -17 -6 -34 -10 -22 -5 -26 -4 -15 4 14 9 59 15 49 6z m491 -26 c-19
-11 -39 -19 -45 -19 -5 0 6 8 25 19 19 11 40 19 45 19 6 0 -6 -8 -25 -19z
m-893 -13 c4 -7 0 -8 -11 -4 -10 4 -22 7 -27 7 -5 0 -9 4 -9 9 0 12 38 2 47
-12z m243 13 c20 -6 21 -8 5 -8 -11 0 -29 3 -40 8 -25 11 1 11 35 0z m187 4
c-3 -3 -12 -4 -19 -1 -8 3 -5 6 6 6 11 1 17 -2 13 -5z m-44 -11 c-7 -2 -19 -2
-25 0 -7 3 -2 5 12 5 14 0 19 -2 13 -5z m417 -2 c-8 -5 -26 -11 -40 -15 -21
-5 -20 -3 5 9 32 15 60 20 35 6z m-600 -11 c-8 -5 -19 -10 -25 -10 -5 0 -3 5
5 10 8 5 20 10 25 10 6 0 3 -5 -5 -10z m-323 -6 c-3 -3 -12 -4 -19 -1 -8 3 -5
6 6 6 11 1 17 -2 13 -5z m426 -1 c-7 -2 -19 -2 -25 0 -7 3 -2 5 12 5 14 0 19
-2 13 -5z m100 0 c-7 -2 -19 -2 -25 0 -7 3 -2 5 12 5 14 0 19 -2 13 -5z m264
1 c-3 -3 -12 -4 -19 -1 -8 3 -5 6 6 6 11 1 17 -2 13 -5z m153 -4 c-8 -5 -19
-10 -25 -10 -5 0 -3 5 5 10 8 5 20 10 25 10 6 0 3 -5 -5 -10z m-730 -10 c11
-7 5 -8 -20 -4 -43 8 -51 14 -19 14 13 0 31 -5 39 -10z m137 4 c-3 -3 -12 -4
-19 -1 -8 3 -5 6 6 6 11 1 17 -2 13 -5z m473 -9 c-19 -7 -42 -13 -50 -13 -8 0
1 6 20 13 19 7 42 13 50 13 8 0 -1 -6 -20 -13z m-543 -1 c-3 -3 -12 -4 -19 -1
-8 3 -5 6 6 6 11 1 17 -2 13 -5z m623 2 c0 -6 -121 -46 -134 -45 -6 0 18 11
54 24 68 25 80 28 80 21z m-233 -12 c-3 -3 -12 -4 -19 -1 -8 3 -5 6 6 6 11 1
17 -2 13 -5z m263 -4 c-8 -5 -19 -10 -25 -10 -5 0 -3 5 5 10 8 5 20 10 25 10
6 0 3 -5 -5 -10z m-463 -6 c-3 -3 -12 -4 -19 -1 -8 3 -5 6 6 6 11 1 17 -2 13
-5z m160 0 c-3 -3 -12 -4 -19 -1 -8 3 -5 6 6 6 11 1 17 -2 13 -5z m120 0 c-3
-3 -12 -4 -19 -1 -8 3 -5 6 6 6 11 1 17 -2 13 -5z m193 -14 c-19 -11 -39 -19
-45 -19 -5 0 6 8 25 19 19 11 40 19 45 19 6 0 -6 -8 -25 -19z m-533 4 c-3 -3
-12 -4 -19 -1 -8 3 -5 6 6 6 11 1 17 -2 13 -5z m166 -1 c-7 -2 -19 -2 -25 0
-7 3 -2 5 12 5 14 0 19 -2 13 -5z m134 1 c-3 -3 -12 -4 -19 -1 -8 3 -5 6 6 6
11 1 17 -2 13 -5z m173 -4 c-8 -5 -19 -10 -25 -10 -5 0 -3 5 5 10 8 5 20 10
25 10 6 0 3 -5 -5 -10z m-543 -6 c-3 -3 -12 -4 -19 -1 -8 3 -5 6 6 6 11 1 17
-2 13 -5z m186 -1 c-7 -2 -19 -2 -25 0 -7 3 -2 5 12 5 14 0 19 -2 13 -5z m144
1 c-3 -3 -12 -4 -19 -1 -8 3 -5 6 6 6 11 1 17 -2 13 -5z m-760 -10 c-3 -3 -12
-4 -19 -1 -8 3 -5 6 6 6 11 1 17 -2 13 -5z m336 -1 c-7 -2 -19 -2 -25 0 -7 3
-2 5 12 5 14 0 19 -2 13 -5z m224 1 c-3 -3 -12 -4 -19 -1 -8 3 -5 6 6 6 11 1
17 -2 13 -5z m156 -1 c-7 -2 -19 -2 -25 0 -7 3 -2 5 12 5 14 0 19 -2 13 -5z
m-50 -10 c-7 -2 -19 -2 -25 0 -7 3 -2 5 12 5 14 0 19 -2 13 -5z m144 1 c-3 -3
-12 -4 -19 -1 -8 3 -5 6 6 6 11 1 17 -2 13 -5z m162 1 c-9 -8 -139 -55 -152
-54 -6 0 22 13 63 29 73 28 98 35 89 25z m-572 -11 c-3 -3 -12 -4 -19 -1 -8 3
-5 6 6 6 11 1 17 -2 13 -5z m216 -1 c-7 -2 -19 -2 -25 0 -7 3 -2 5 12 5 14 0
19 -2 13 -5z m154 1 c-3 -3 -12 -4 -19 -1 -8 3 -5 6 6 6 11 1 17 -2 13 -5z
m-659 -11 c-10 -2 -26 -2 -35 0 -10 3 -2 5 17 5 19 0 27 -2 18 -5z m165 0 c-7
-2 -21 -2 -30 0 -10 3 -4 5 12 5 17 0 24 -2 18 -5z m285 0 c-10 -2 -26 -2 -35
0 -10 3 -2 5 17 5 19 0 27 -2 18 -5z m159 1 c-3 -3 -12 -4 -19 -1 -8 3 -5 6 6
6 11 1 17 -2 13 -5z m108 -4 c-11 -5 -27 -9 -35 -9 -9 0 -8 4 5 9 11 5 27 9
35 9 9 0 8 -4 -5 -9z m-878 -6 c-3 -3 -12 -4 -19 -1 -8 3 -5 6 6 6 11 1 17 -2
13 -5z m541 -1 c-10 -2 -26 -2 -35 0 -10 3 -2 5 17 5 19 0 27 -2 18 -5z m185
0 c-7 -2 -19 -2 -25 0 -7 3 -2 5 12 5 14 0 19 -2 13 -5z m-630 -10 c-7 -2 -21
-2 -30 0 -10 3 -4 5 12 5 17 0 24 -2 18 -5z m345 0 c-10 -2 -26 -2 -35 0 -10
3 -2 5 17 5 19 0 27 -2 18 -5z m235 0 c-7 -2 -19 -2 -25 0 -7 3 -2 5 12 5 14
0 19 -2 13 -5z m144 1 c-3 -3 -12 -4 -19 -1 -8 3 -5 6 6 6 11 1 17 -2 13 -5z
m-850 -10 c-3 -3 -12 -4 -19 -1 -8 3 -5 6 6 6 11 1 17 -2 13 -5z m291 -1 c-10
-2 -26 -2 -35 0 -10 3 -2 5 17 5 19 0 27 -2 18 -5z m355 0 c-7 -2 -21 -2 -30
0 -10 3 -4 5 12 5 17 0 24 -2 18 -5z m164 1 c-3 -3 -12 -4 -19 -1 -8 3 -5 6 6
6 11 1 17 -2 13 -5z m-744 -11 c-7 -2 -19 -2 -25 0 -7 3 -2 5 12 5 14 0 19 -2
13 -5z m510 0 c-7 -2 -21 -2 -30 0 -10 3 -4 5 12 5 17 0 24 -2 18 -5z m190 0
c-7 -2 -19 -2 -25 0 -7 3 -2 5 12 5 14 0 19 -2 13 -5z m102 -3 c-11 -5 -27 -9
-35 -9 -9 0 -8 4 5 9 11 5 27 9 35 9 9 0 8 -4 -5 -9z m-697 -7 c-10 -2 -28 -2
-40 0 -13 2 -5 4 17 4 22 1 32 -1 23 -4z m295 0 c-13 -2 -33 -2 -45 0 -13 2
-3 4 22 4 25 0 35 -2 23 -4z m250 0 c-7 -2 -21 -2 -30 0 -10 3 -4 5 12 5 17 0
24 -2 18 -5z m-60 -10 c-7 -2 -21 -2 -30 0 -10 3 -4 5 12 5 17 0 24 -2 18 -5z
m154 1 c-3 -3 -12 -4 -19 -1 -8 3 -5 6 6 6 11 1 17 -2 13 -5z m-730 -10 c-3
-3 -12 -4 -19 -1 -8 3 -5 6 6 6 11 1 17 -2 13 -5z m501 -1 c-10 -2 -26 -2 -35
0 -10 3 -2 5 17 5 19 0 27 -2 18 -5z m185 0 c-7 -2 -19 -2 -25 0 -7 3 -2 5 12
5 14 0 19 -2 13 -5z m-585 -10 c-10 -2 -26 -2 -35 0 -10 3 -2 5 17 5 19 0 27
-2 18 -5z m300 0 c-10 -2 -26 -2 -35 0 -10 3 -2 5 17 5 19 0 27 -2 18 -5z
m235 0 c-7 -2 -19 -2 -25 0 -7 3 -2 5 12 5 14 0 19 -2 13 -5z m-50 -10 c-7 -2
-21 -2 -30 0 -10 3 -4 5 12 5 17 0 24 -2 18 -5z m144 1 c-3 -3 -12 -4 -19 -1
-8 3 -5 6 6 6 11 1 17 -2 13 -5z m-724 -11 c-7 -2 -19 -2 -25 0 -7 3 -2 5 12
5 14 0 19 -2 13 -5z m515 0 c-10 -2 -28 -2 -40 0 -13 2 -5 4 17 4 22 1 32 -1
23 -4z m169 1 c-3 -3 -12 -4 -19 -1 -8 3 -5 6 6 6 11 1 17 -2 13 -5z m-579
-11 c-10 -2 -26 -2 -35 0 -10 3 -2 5 17 5 19 0 27 -2 18 -5z m325 0 c-13 -2
-33 -2 -45 0 -13 2 -3 4 22 4 25 0 35 -2 23 -4z m210 0 c-7 -2 -19 -2 -25 0
-7 3 -2 5 12 5 14 0 19 -2 13 -5z m-50 -10 c-7 -2 -21 -2 -30 0 -10 3 -4 5 12
5 17 0 24 -2 18 -5z m-590 -10 c-7 -2 -19 -2 -25 0 -7 3 -2 5 12 5 14 0 19 -2
13 -5z m525 0 c-10 -2 -26 -2 -35 0 -10 3 -2 5 17 5 19 0 27 -2 18 -5z m-435
-10 c-7 -2 -21 -2 -30 0 -10 3 -4 5 12 5 17 0 24 -2 18 -5z m360 0 c-13 -2
-35 -2 -50 0 -16 2 -5 4 22 4 28 0 40 -2 28 -4z m-166 -10 c-20 -2 -52 -2 -70
0 -17 2 0 4 38 4 39 0 53 -2 32 -4z"/>
<path d="M1279 3883 c-13 -16 -12 -17 4 -4 9 7 17 15 17 17 0 8 -8 3 -21 -13z"/>
<path d="M1199 3833 l-24 -28 28 24 c25 23 32 31 24 31 -2 0 -14 -12 -28 -27z"/>
<path d="M1259 3793 c-13 -16 -12 -17 4 -4 9 7 17 15 17 17 0 8 -8 3 -21 -13z"/>
<path d="M1125 3739 c-26 -33 -45 -62 -43 -64 2 -2 25 25 51 60 59 82 53 85
-8 4z"/>
<path d="M1036 3614 c-10 -14 -16 -28 -13 -30 2 -3 12 7 21 22 10 14 16 28 13
30 -2 3 -12 -7 -21 -22z"/>
<path d="M1010 3529 c-7 -11 -10 -23 -7 -25 2 -2 9 7 15 21 14 30 7 33 -8 4z"/>
<path d="M1096 3304 c-4 -14 -5 -28 -3 -31 3 -2 8 8 11 23 4 14 5 28 3 31 -3
2 -8 -8 -11 -23z"/>
<path d="M1136 3285 c-3 -8 -1 -15 4 -15 6 0 10 7 10 15 0 8 -2 15 -4 15 -2 0
-6 -7 -10 -15z"/>
<path d="M1050 3244 c0 -16 -2 -17 -10 -4 -11 18 -12 3 -1 -25 7 -17 9 -16 15
9 4 16 5 31 1 34 -3 3 -5 -3 -5 -14z"/>
<path d="M1132 3240 c0 -14 2 -19 5 -12 2 6 2 18 0 25 -3 6 -5 1 -5 -13z"/>
<path d="M1070 3213 c0 -12 5 -25 10 -28 13 -8 13 15 0 35 -8 12 -10 11 -10
-7z"/>
<path d="M1119 3193 c-1 -10 -3 -35 -5 -57 -2 -21 -1 -37 1 -34 7 7 16 108 10
108 -3 0 -6 -8 -6 -17z"/>
<path d="M1027 3179 c4 -13 8 -18 11 -10 2 7 -1 18 -6 23 -8 8 -9 4 -5 -13z"/>
<path d="M1060 3168 c0 -7 5 -20 10 -28 8 -12 10 -11 10 7 0 12 -4 25 -10 28
-5 3 -10 0 -10 -7z"/>
<path d="M1001 3134 c0 -11 3 -14 6 -6 3 7 2 16 -1 19 -3 4 -6 -2 -5 -13z"/>
<path d="M1011 3088 c-9 -46 -9 -70 -1 -88 10 -23 10 -23 5 8 -2 18 0 55 6 83
6 28 9 53 6 55 -2 3 -10 -23 -16 -58z"/>
<path d="M1054 3105 c7 -38 7 -39 -9 -20 -9 11 -14 14 -10 7 4 -7 9 -79 11
-160 6 -178 21 -277 22 -142 1 47 -3 104 -7 128 -5 23 -5 42 -1 42 11 0 6 167
-4 177 -5 4 -5 -10 -2 -32z"/>
<path d="M971 3094 c0 -11 3 -14 6 -6 3 7 2 16 -1 19 -3 4 -6 -2 -5 -13z"/>
<path d="M992 3090 c0 -14 2 -19 5 -12 2 6 2 18 0 25 -3 6 -5 1 -5 -13z"/>
<path d="M960 3051 c0 -14 -4 -20 -12 -15 -7 4 -8 3 -4 -5 4 -6 3 -18 -3 -25
-7 -8 -9 -30 -6 -52 4 -29 3 -35 -4 -24 -9 12 -11 9 -11 -15 0 -56 18 -62 25
-9 3 27 11 73 17 102 5 30 7 56 4 59 -3 4 -6 -4 -6 -16z"/>
<path d="M1022 2930 c0 -14 2 -19 5 -12 2 6 2 18 0 25 -3 6 -5 1 -5 -13z"/>
<path d="M1111 2924 c0 -11 3 -14 6 -6 3 7 2 16 -1 19 -3 4 -6 -2 -5 -13z"/>
<path d="M972 2810 c0 -14 2 -19 5 -12 2 6 2 18 0 25 -3 6 -5 1 -5 -13z"/>
<path d="M1111 2814 c0 -11 3 -14 6 -6 3 7 2 16 -1 19 -3 4 -6 -2 -5 -13z"/>
<path d="M1123 2740 c0 -25 2 -35 4 -22 2 12 2 32 0 45 -2 12 -4 2 -4 -23z"/>
<path d="M1080 2715 c0 -35 4 -54 10 -50 6 3 10 26 10 50 0 24 -4 47 -10 50
-6 4 -10 -15 -10 -50z"/>
<path d="M1112 2667 c-12 -14 -12 -57 -1 -57 4 0 9 16 11 35 5 40 4 40 -10 22z"/>
<path d="M1081 2624 c0 -11 3 -14 6 -6 3 7 2 16 -1 19 -3 4 -6 -2 -5 -13z"/>
<path d="M1126 2563 c10 -40 15 -42 12 -5 -1 18 -6 32 -10 32 -5 0 -5 -12 -2
-27z"/>
<path d="M1111 2490 c0 -33 1 -34 11 -12 8 17 8 26 0 34 -9 9 -12 4 -11 -22z"/>
<path d="M1137 2486 c-3 -22 -3 -45 2 -50 5 -6 7 -19 5 -29 -3 -23 -17 -38
-14 -17 3 21 -11 60 -21 60 -5 0 -9 -9 -9 -21 0 -11 4 -18 9 -15 5 3 11 -8 15
-24 3 -17 9 -30 14 -30 9 0 35 90 27 98 -3 3 -5 0 -5 -6 0 -7 -4 -12 -10 -12
-12 0 -14 27 -2 32 5 2 5 14 2 28 -6 22 -7 21 -13 -14z"/>
<path d="M1087 2474 c-4 -4 -7 -17 -7 -28 1 -19 1 -20 11 -3 11 19 8 43 -4 31z"/>
<path d="M1225 2131 c-3 -12 -11 -18 -17 -15 -6 4 -9 1 -6 -6 8 -25 26 -21 32
6 8 32 1 44 -9 15z"/>
<path d="M1350 1890 c-7 -13 -7 -26 -2 -37 8 -14 12 -12 26 15 15 29 15 31 -1
25 -11 -4 -14 -3 -9 5 4 7 5 12 2 12 -3 0 -10 -9 -16 -20z"/>
<path d="M990 1636 c0 -13 71 -128 77 -122 2 2 -3 16 -12 30 -9 14 -14 30 -10
35 6 11 -13 56 -22 48 -2 -3 0 -16 6 -29 10 -20 10 -20 -1 -5 -29 42 -37 52
-38 43z"/>
<path d="M1161 1485 c-1 -5 15 -28 35 -50 19 -22 31 -31 25 -20 -14 29 -60 82
-60 70z"/>
<path d="M1160 1383 c0 -5 12 -20 26 -34 24 -21 26 -22 16 -3 -13 25 -42 50
-42 37z"/>
<path d="M2670 3765 c0 -8 5 -15 10 -15 6 0 10 7 10 15 0 8 -4 15 -10 15 -5 0
-10 -7 -10 -15z"/>
<path d="M2667 3724 c-13 -13 -7 -24 14 -24 11 0 19 5 17 12 -5 14 -22 21 -31
12z"/>
<path d="M2913 3714 c-8 -22 10 -49 32 -49 10 0 22 7 28 16 15 24 1 49 -28 49
-15 0 -28 -7 -32 -16z"/>
<path d="M3869 1373 c-13 -16 -12 -17 4 -4 16 13 21 21 13 21 -2 0 -10 -8 -17
-17z"/>
<path d="M3843 1279 c-35 -22 -46 -37 -15 -20 22 13 58 40 52 41 -3 0 -20 -10
-37 -21z"/>
<path d="M3813 1213 c0 -9 4 -10 14 -2 7 6 13 12 13 14 0 1 -6 2 -13 2 -8 0
-14 -6 -14 -14z"/>
<path d="M3620 1155 c-14 -8 -20 -14 -14 -15 5 0 19 7 30 15 24 18 16 19 -16
0z"/>
<path d="M3650 1110 c-8 -5 -10 -10 -5 -10 6 0 17 5 25 10 8 5 11 10 5 10 -5
0 -17 -5 -25 -10z"/>
<path d="M3489 939 c-12 -7 -11 -9 1 -9 8 0 2 -9 -15 -20 -16 -11 -27 -20 -24
-20 6 0 99 50 99 53 0 7 -50 3 -61 -4z"/>
<path d="M3706 3124 c-9 -8 -16 -19 -16 -24 0 -5 7 -16 16 -24 8 -9 19 -16 24
-16 5 0 16 7 24 16 9 8 16 19 16 24 0 5 -7 16 -16 24 -8 9 -19 16 -24 16 -5 0
-16 -7 -24 -16z"/>
<path d="M3132 2080 c-7 -19 -6 -26 5 -28 21 -5 25 2 14 29 l-9 24 -10 -25z"/>
<path d="M3737 2113 c-12 -11 -8 -23 8 -23 8 0 15 7 15 15 0 16 -12 20 -23 8z"/>
<path d="M3710 2030 c0 -13 7 -20 20 -20 23 0 26 10 8 28 -18 18 -28 15 -28
-8z"/>
<path d="M2930 1820 c0 -42 3 -50 18 -50 24 0 52 31 52 56 0 27 -19 44 -47 44
-21 0 -23 -4 -23 -50z"/>
</g>
</svg>
